<?xml version="1.0" encoding="UTF-8"?>
<svg id="Layer_2" data-name="Layer 2"
  xmlns="http://www.w3.org/2000/svg" viewBox="0 0 635.72 217.63">
  <g id="Layer_1" data-name="Layer 1">
    <g>
      <path d="M263.24,67.38c-1.97-1.15-3.34-2.77-4.1-4.87-1.59,2.2-3.53,3.88-5.83,5.03-2.3,1.15-4.86,1.73-7.67,1.73-3.94,0-7.07-1.09-9.4-3.26-2.33-2.17-3.49-5.08-3.49-8.71,0-4.09,1.58-7.41,4.76-9.94,3.17-2.53,8.06-4.44,14.66-5.72l3.84-.77c.77-.15,1.3-.36,1.61-.61.31-.25.46-.61.46-1.07,0-.77-.47-1.53-1.42-2.3-.95-.77-2.26-1.15-3.95-1.15-2,0-4.11.51-6.33,1.54-2.23,1.02-4.26,2.41-6.1,4.14l-6.91-7.83c5.37-5.47,12.1-8.21,20.18-8.21,5.58,0,9.92,1.28,13.04,3.84,3.12,2.56,4.68,6.09,4.68,10.59v17.03c0,.82.23,1.45.69,1.88.46.44,1.1.65,1.92.65.87,0,1.79-.2,2.76-.61l1.61,8.82c-1.94,1.02-4.48,1.53-7.6,1.53s-5.44-.58-7.4-1.73ZM246.86,58.52c.82.67,1.97,1,3.45,1,2.92,0,5.6-1.23,8.06-3.68v-7.83c-.46.72-1.76,1.25-3.91,1.61-3.07.56-5.31,1.33-6.71,2.3-1.41.97-2.11,2.22-2.11,3.76,0,1.23.41,2.17,1.23,2.84Z"/>
      <path d="M280.47,11.56h12.89v56.94h-12.89V11.56Z"/>
      <path d="M295.97,11.56h12.89v56.94h-12.89V11.56Z"/>
      <path d="M321.52,66.54c-3.43-1.82-6.09-4.39-7.98-7.71-1.89-3.32-2.84-7.16-2.84-11.51s.91-8.18,2.72-11.51c1.82-3.33,4.36-5.9,7.64-7.71,3.27-1.82,7.06-2.72,11.36-2.72s7.85.87,10.97,2.61c3.12,1.74,5.54,4.2,7.25,7.37,1.71,3.17,2.57,6.86,2.57,11.05v4.22h-29.16c.46,2.71,1.53,4.82,3.22,6.33,1.69,1.51,3.84,2.26,6.45,2.26,2.15,0,4.16-.47,6.02-1.42,1.87-.95,3.49-2.34,4.87-4.18l7.98,6.83c-4.35,5.88-10.69,8.82-19.03,8.82-4.6,0-8.62-.91-12.05-2.72ZM340.78,42.18c-.51-2.25-1.48-3.99-2.92-5.22-1.43-1.23-3.25-1.84-5.45-1.84s-3.94.61-5.37,1.84c-1.43,1.23-2.4,2.97-2.92,5.22h16.65Z"/>
      <path d="M380.91,37.19c-.97-.97-2.35-1.46-4.14-1.46-3.12,0-6.01,1.33-8.67,3.99v28.78h-12.89V26.14h12.74v5.99c3.48-4.5,8.11-6.75,13.89-6.75,4.25,0,7.54,1.27,9.9,3.8,2.35,2.53,3.53,6.08,3.53,10.63v28.7h-12.89v-27.16c0-1.79-.49-3.17-1.46-4.14Z"/>
    </g>
    <g>
      <path d="M236.42,84.8c-1.38-1.35-2.07-3.08-2.07-5.18s.69-3.82,2.07-5.18c1.38-1.35,3.15-2.03,5.29-2.03s3.91.68,5.29,2.03c1.38,1.36,2.07,3.08,2.07,5.18s-.69,3.83-2.07,5.18c-1.38,1.36-3.15,2.03-5.29,2.03s-3.91-.68-5.29-2.03ZM235.27,90.06h12.89v42.36h-12.89v-42.36Z"/>
      <path d="M276.4,101.11c-.97-.97-2.35-1.46-4.14-1.46-3.12,0-6.01,1.33-8.67,3.99v28.78h-12.89v-42.36h12.74v5.99c3.48-4.5,8.11-6.75,13.89-6.75,4.25,0,7.54,1.27,9.9,3.8,2.35,2.53,3.53,6.08,3.53,10.63v28.7h-12.89v-27.16c0-1.79-.49-3.17-1.46-4.14Z"/>
      <path d="M300.65,131c-3.33-1.46-6.01-3.57-8.06-6.33l8.06-6.83c2.61,3.53,6.34,5.29,11.2,5.29,2.15,0,3.85-.28,5.1-.84,1.25-.56,1.88-1.28,1.88-2.15,0-.56-.37-1.01-1.11-1.34-.74-.33-2.16-.7-4.26-1.11l-4.83-.92c-4.91-.92-8.56-2.47-10.93-4.64-2.38-2.17-3.57-5.05-3.57-8.63,0-4.35,1.66-7.8,4.99-10.36,3.32-2.56,7.78-3.84,13.35-3.84,4.04,0,7.61.68,10.7,2.03,3.09,1.36,5.59,3.31,7.48,5.87l-7.75,6.6c-1.13-1.48-2.6-2.65-4.41-3.49-1.82-.84-3.82-1.27-6.02-1.27-1.74,0-3.16.26-4.26.77-1.1.51-1.65,1.2-1.65,2.07,0,.72.38,1.28,1.15,1.69.77.41,2.1.79,3.99,1.15l4.83.92c5.27.97,9.09,2.49,11.47,4.57,2.38,2.07,3.57,4.85,3.57,8.33,0,2.97-.81,5.55-2.42,7.75-1.61,2.2-3.89,3.9-6.83,5.1-2.94,1.2-6.38,1.8-10.32,1.8-4.25,0-8.03-.73-11.36-2.19Z"/>
      <path d="M343.81,129.5c-2.79-2.46-4.18-5.86-4.18-10.21v-19.49h-7.6v-9.75h8.21l2.84-12.12h9.44v12.12h12.35v9.75h-12.35v17.57c0,1.74.47,3.08,1.42,4.03.95.95,2.29,1.42,4.03,1.42,1.07,0,2.23-.14,3.45-.42,1.23-.28,2.33-.65,3.3-1.11l2.46,9.21c-1.43.87-3.17,1.54-5.22,2-2.05.46-4.22.69-6.52.69-4.96,0-8.84-1.23-11.63-3.68Z"/>
      <path d="M371.01,84.8c-1.38-1.35-2.07-3.08-2.07-5.18s.69-3.82,2.07-5.18c1.38-1.35,3.15-2.03,5.29-2.03s3.91.68,5.29,2.03c1.38,1.36,2.07,3.08,2.07,5.18s-.69,3.83-2.07,5.18c-1.38,1.36-3.15,2.03-5.29,2.03s-3.91-.68-5.29-2.03ZM369.86,90.06h12.89v42.36h-12.89v-42.36Z"/>
      <path d="M396.52,129.5c-2.79-2.46-4.18-5.86-4.18-10.21v-19.49h-7.6v-9.75h8.21l2.84-12.12h9.44v12.12h12.35v9.75h-12.35v17.57c0,1.74.47,3.08,1.42,4.03.95.95,2.29,1.42,4.03,1.42,1.07,0,2.23-.14,3.45-.42,1.23-.28,2.33-.65,3.3-1.11l2.46,9.21c-1.43.87-3.17,1.54-5.22,2-2.05.46-4.22.69-6.52.69-4.96,0-8.84-1.23-11.63-3.68Z"/>
      <path d="M435.12,121.33c1,1,2.37,1.5,4.1,1.5,3.12,0,6.01-1.33,8.67-3.99v-28.78h12.89v42.36h-12.74v-5.99c-3.48,4.5-8.11,6.75-13.89,6.75-4.25,0-7.55-1.27-9.9-3.8-2.35-2.53-3.53-6.07-3.53-10.63v-28.7h12.89v27.16c0,1.74.5,3.11,1.5,4.11Z"/>
      <path d="M474.48,129.5c-2.79-2.46-4.18-5.86-4.18-10.21v-19.49h-7.6v-9.75h8.21l2.84-12.12h9.44v12.12h12.35v9.75h-12.35v17.57c0,1.74.47,3.08,1.42,4.03.95.95,2.29,1.42,4.03,1.42,1.07,0,2.23-.14,3.45-.42s2.33-.65,3.3-1.11l2.46,9.21c-1.43.87-3.17,1.54-5.22,2-2.05.46-4.22.69-6.52.69-4.96,0-8.84-1.23-11.62-3.68Z"/>
      <path d="M506.98,130.46c-3.43-1.82-6.09-4.39-7.98-7.71-1.89-3.32-2.84-7.16-2.84-11.51s.91-8.18,2.72-11.51c1.82-3.33,4.36-5.9,7.63-7.71,3.27-1.82,7.06-2.72,11.36-2.72s7.85.87,10.97,2.61c3.12,1.74,5.54,4.2,7.25,7.37,1.71,3.17,2.57,6.86,2.57,11.05v4.22h-29.16c.46,2.71,1.53,4.82,3.22,6.33,1.69,1.51,3.84,2.26,6.45,2.26,2.15,0,4.16-.47,6.02-1.42s3.49-2.34,4.87-4.18l7.98,6.83c-4.35,5.88-10.69,8.82-19.03,8.82-4.6,0-8.62-.91-12.05-2.72ZM526.24,106.1c-.51-2.25-1.48-3.99-2.92-5.22-1.43-1.23-3.25-1.84-5.45-1.84s-3.94.61-5.37,1.84c-1.43,1.23-2.41,2.97-2.92,5.22h16.65Z"/>
      <path d="M568.52,68.57h13.5l-33.15,73.2h-13.5l33.15-73.2Z"/>
      <path d="M243.4,195.46c-3.33-1.82-5.9-4.37-7.71-7.67-1.82-3.3-2.72-7.15-2.72-11.55s.92-8.18,2.76-11.51c1.84-3.32,4.42-5.89,7.75-7.71,3.32-1.82,7.16-2.72,11.51-2.72,4.09,0,7.63.83,10.63,2.49,2.99,1.66,5.61,4.26,7.86,7.79l-8.67,6.52c-1.48-2.25-2.99-3.89-4.53-4.91-1.53-1.02-3.25-1.53-5.14-1.53-2.81,0-5.04,1.05-6.68,3.15-1.64,2.1-2.46,4.91-2.46,8.44s.82,6.52,2.46,8.67c1.64,2.15,3.86,3.22,6.68,3.22,1.99,0,3.84-.58,5.52-1.73,1.69-1.15,3.35-2.98,4.99-5.49l8.44,6.29c-2.4,3.79-5.14,6.56-8.21,8.33s-6.7,2.65-10.9,2.65c-4.4,0-8.26-.91-11.59-2.72Z" fill="#939598"/>
      <path d="M284.3,195.46c-3.43-1.82-6.09-4.39-7.98-7.71-1.89-3.33-2.84-7.16-2.84-11.51s.91-8.18,2.72-11.51c1.81-3.32,4.36-5.89,7.63-7.71,3.27-1.82,7.06-2.72,11.36-2.72s7.85.87,10.97,2.61c3.12,1.74,5.54,4.2,7.25,7.37,1.71,3.17,2.57,6.86,2.57,11.05v4.22h-29.16c.46,2.71,1.53,4.82,3.22,6.33s3.84,2.26,6.45,2.26c2.15,0,4.16-.47,6.02-1.42,1.87-.95,3.49-2.34,4.87-4.18l7.98,6.83c-4.35,5.88-10.69,8.82-19.03,8.82-4.6,0-8.62-.91-12.05-2.72ZM303.56,171.1c-.51-2.25-1.48-3.99-2.92-5.22-1.43-1.23-3.25-1.84-5.45-1.84s-3.94.61-5.37,1.84c-1.43,1.23-2.41,2.97-2.92,5.22h16.65Z" fill="#939598"/>
      <path d="M319.06,140.48h12.89v56.93h-12.89v-56.93Z" fill="#939598"/>
      <path d="M337.24,140.48h12.89v56.93h-12.89v-56.93Z" fill="#939598"/>
      <path d="M374.46,196c-3.33-1.46-6.01-3.57-8.06-6.33l8.06-6.83c2.61,3.53,6.34,5.29,11.2,5.29,2.15,0,3.85-.28,5.1-.84,1.25-.56,1.88-1.28,1.88-2.15,0-.56-.37-1.01-1.11-1.34-.74-.33-2.16-.7-4.26-1.11l-4.83-.92c-4.91-.92-8.56-2.47-10.93-4.64-2.38-2.17-3.57-5.05-3.57-8.63,0-4.35,1.66-7.8,4.99-10.36,3.32-2.56,7.77-3.84,13.35-3.84,4.04,0,7.61.68,10.7,2.03,3.09,1.36,5.59,3.31,7.48,5.87l-7.75,6.6c-1.13-1.48-2.6-2.65-4.41-3.49-1.82-.84-3.82-1.27-6.02-1.27-1.74,0-3.16.26-4.26.77-1.1.51-1.65,1.2-1.65,2.07,0,.72.38,1.28,1.15,1.69.77.41,2.1.79,3.99,1.15l4.83.92c5.27.97,9.09,2.49,11.47,4.57,2.38,2.07,3.57,4.85,3.57,8.33,0,2.97-.81,5.55-2.42,7.75-1.61,2.2-3.89,3.9-6.83,5.1-2.94,1.2-6.38,1.8-10.32,1.8-4.25,0-8.03-.73-11.36-2.19Z" fill="#939598"/>
      <path d="M416.12,195.46c-3.33-1.82-5.9-4.37-7.71-7.67-1.82-3.3-2.72-7.15-2.72-11.55s.92-8.18,2.76-11.51c1.84-3.32,4.42-5.89,7.75-7.71,3.32-1.82,7.16-2.72,11.51-2.72,4.09,0,7.63.83,10.63,2.49,2.99,1.66,5.61,4.26,7.86,7.79l-8.67,6.52c-1.48-2.25-2.99-3.89-4.53-4.91-1.53-1.02-3.25-1.53-5.14-1.53-2.81,0-5.04,1.05-6.68,3.15-1.64,2.1-2.46,4.91-2.46,8.44s.82,6.52,2.46,8.67c1.64,2.15,3.86,3.22,6.68,3.22,1.99,0,3.84-.58,5.52-1.73,1.69-1.15,3.35-2.98,4.99-5.49l8.44,6.29c-2.4,3.79-5.14,6.56-8.21,8.33s-6.7,2.65-10.9,2.65c-4.4,0-8.26-.91-11.59-2.72Z" fill="#939598"/>
      <path d="M449.65,149.81c-1.38-1.35-2.07-3.08-2.07-5.18s.69-3.82,2.07-5.18c1.38-1.35,3.15-2.03,5.29-2.03s3.91.68,5.29,2.03c1.38,1.36,2.07,3.08,2.07,5.18s-.69,3.82-2.07,5.18c-1.38,1.36-3.15,2.03-5.29,2.03s-3.91-.68-5.29-2.03ZM448.5,155.06h12.89v42.36h-12.89v-42.36Z" fill="#939598"/>
      <path d="M475.2,195.46c-3.43-1.82-6.09-4.39-7.98-7.71-1.89-3.33-2.84-7.16-2.84-11.51s.91-8.18,2.72-11.51c1.81-3.32,4.36-5.89,7.63-7.71,3.27-1.82,7.06-2.72,11.36-2.72s7.85.87,10.97,2.61c3.12,1.74,5.54,4.2,7.25,7.37,1.71,3.17,2.57,6.86,2.57,11.05v4.22h-29.16c.46,2.71,1.54,4.82,3.22,6.33,1.69,1.51,3.84,2.26,6.45,2.26,2.15,0,4.16-.47,6.02-1.42,1.87-.95,3.49-2.34,4.87-4.18l7.98,6.83c-4.35,5.88-10.69,8.82-19.03,8.82-4.6,0-8.62-.91-12.05-2.72ZM494.46,171.1c-.51-2.25-1.48-3.99-2.92-5.22-1.43-1.23-3.25-1.84-5.45-1.84s-3.94.61-5.37,1.84c-1.43,1.23-2.4,2.97-2.92,5.22h16.65Z" fill="#939598"/>
      <path d="M535.66,166.11c-.97-.97-2.35-1.46-4.14-1.46-3.12,0-6.01,1.33-8.67,3.99v28.77h-12.89v-42.36h12.74v5.99c3.48-4.5,8.11-6.75,13.89-6.75,4.25,0,7.54,1.27,9.9,3.8,2.35,2.53,3.53,6.08,3.53,10.63v28.7h-12.89v-27.16c0-1.79-.49-3.17-1.46-4.14Z" fill="#939598"/>
      <path d="M563.13,195.46c-3.33-1.82-5.9-4.37-7.71-7.67-1.82-3.3-2.72-7.15-2.72-11.55s.92-8.18,2.76-11.51c1.84-3.32,4.42-5.89,7.75-7.71,3.32-1.82,7.16-2.72,11.51-2.72,4.09,0,7.63.83,10.63,2.49,2.99,1.66,5.61,4.26,7.86,7.79l-8.67,6.52c-1.48-2.25-2.99-3.89-4.53-4.91-1.53-1.02-3.25-1.53-5.14-1.53-2.81,0-5.04,1.05-6.68,3.15-1.64,2.1-2.46,4.91-2.46,8.44s.82,6.52,2.46,8.67c1.64,2.15,3.86,3.22,6.68,3.22,2,0,3.84-.58,5.52-1.73,1.69-1.15,3.35-2.98,4.99-5.49l8.44,6.29c-2.41,3.79-5.14,6.56-8.21,8.33s-6.7,2.65-10.9,2.65c-4.4,0-8.26-.91-11.59-2.72Z" fill="#939598"/>
      <path d="M604.03,195.46c-3.43-1.82-6.09-4.39-7.98-7.71-1.89-3.33-2.84-7.16-2.84-11.51s.91-8.18,2.72-11.51c1.82-3.32,4.36-5.89,7.63-7.71,3.27-1.82,7.06-2.72,11.36-2.72s7.85.87,10.97,2.61c3.12,1.74,5.54,4.2,7.25,7.37,1.71,3.17,2.57,6.86,2.57,11.05v4.22h-29.16c.46,2.71,1.54,4.82,3.22,6.33,1.69,1.51,3.84,2.26,6.45,2.26,2.15,0,4.16-.47,6.02-1.42,1.87-.95,3.49-2.34,4.87-4.18l7.98,6.83c-4.35,5.88-10.69,8.82-19.03,8.82-4.6,0-8.62-.91-12.05-2.72ZM623.29,171.1c-.51-2.25-1.48-3.99-2.92-5.22-1.43-1.23-3.25-1.84-5.45-1.84s-3.94.61-5.37,1.84c-1.43,1.23-2.4,2.97-2.92,5.22h16.65Z" fill="#939598"/>
    </g>
    <path d="M42.25,69.51c6.01-1.13,7.73-3.12,7.73-6.81,0-4.54-6.01-12.77-20.03-12.77-5.93,0-12.43,1.33-18.97,3.76-4.72,8.01-8.44,16.67-10.98,25.81,8.15-2.79,17.45-5.16,27.95-7.16l14.31-2.84Z"/>
    <path d="M159.31,192.17h-37.45L190.99,41.11C170.99,16.07,140.05,0,105.33,0c-19.06,0-36.98,4.85-52.58,13.36,29.49,5.52,46.45,24.06,46.45,51.62v62.99c0,5.96,3.43,9.36,9.73,9.36,3.15,0,6.01-.85,9.16-2.27l8.3,31.49c-7.15,4.54-17.45,6.81-29.47,6.81-22.03,0-37.2-8.79-42.92-24.4-9.08,12.51-21.59,20.61-36.59,23.63,19.89,26.71,51.87,44.04,87.93,44.04,60.33,0,109.24-48.49,109.24-108.31,0-9.86-1.34-19.42-3.83-28.5l-51.42,112.36Z"/>
    <path d="M51.12,124.27v-28.94c-2,1.99-7.15,4.54-14.59,5.96-22.61,4.26-32.91,10.78-32.91,22.42,0,9.36,6.58,14.19,17.46,14.19s20.89-4.54,30.05-13.62"/>
  </g>
</svg>