<svg xmlns="http://www.w3.org/2000/svg" viewBox="0 0 329.24 84.84"><defs><style>.cls-1{fill:#003057;}.cls-2{fill:#827aa3;}</style></defs><title>Allen Institute for Cell Science</title><g id="Layer_2" data-name="Layer 2"><g id="Layer_1-2" data-name="Layer 1"><polygon class="cls-1" points="264.93 32.04 263.44 32.04 263.44 18.5 258.51 18.5 258.51 17.15 269.86 17.15 269.86 18.5 264.93 18.5 264.93 32.04"/><polygon class="cls-1" points="274.39 30.69 282.26 30.69 282.26 32.04 272.89 32.04 272.89 17.15 282.01 17.15 282.01 18.5 274.39 18.5 274.39 23.61 281.51 23.61 281.51 24.95 274.39 24.95 274.39 30.69"/><path class="cls-1" d="M249.94,32.48a5.68,5.68,0,0,1-2.72-.58,5,5,0,0,1-1.69-1.46,5.5,5.5,0,0,1-.86-1.93,8.73,8.73,0,0,1-.24-2V17.21h1.5v9.17a7.23,7.23,0,0,0,.21,1.75,4.27,4.27,0,0,0,.67,1.52,3.41,3.41,0,0,0,1.24,1.07,4.56,4.56,0,0,0,3.78,0,3.58,3.58,0,0,0,1.24-1.07,4.46,4.46,0,0,0,.67-1.52,7.23,7.23,0,0,0,.21-1.75V17.21h1.5v9.34a8.73,8.73,0,0,1-.24,2,5.35,5.35,0,0,1-.87,1.93,5,5,0,0,1-1.69,1.46,5.73,5.73,0,0,1-2.71.58"/><path class="cls-2" d="M294.43,26h-1.6l-1,6.07h-1L291.86,26h-1.44l.16-.82H292l.32-1.87a5.25,5.25,0,0,1,.27-1,2.79,2.79,0,0,1,.51-.81,2.43,2.43,0,0,1,.75-.55,2.31,2.31,0,0,1,1-.21l.4,0a1.89,1.89,0,0,1,.4.08l-.23.86a2.38,2.38,0,0,0-.68-.09,1.31,1.31,0,0,0-.61.14,1.24,1.24,0,0,0-.42.37,2.15,2.15,0,0,0-.27.57,3.87,3.87,0,0,0-.17.69L293,25.15h1.63Z"/><path class="cls-2" d="M301.52,28a2.5,2.5,0,0,0-.15-.88,2,2,0,0,0-.43-.7,1.78,1.78,0,0,0-.69-.46,2.21,2.21,0,0,0-.91-.17,2.52,2.52,0,0,0-1.17.27,2.9,2.9,0,0,0-.93.74,3.66,3.66,0,0,0-.62,1.07,3.74,3.74,0,0,0-.22,1.3,2.48,2.48,0,0,0,.14.87,2,2,0,0,0,1.11,1.17,2.38,2.38,0,0,0,.91.17,2.71,2.71,0,0,0,1.2-.27,3,3,0,0,0,.93-.74,3.4,3.4,0,0,0,.61-1.07,3.94,3.94,0,0,0,.22-1.3m-3,4.2a3.4,3.4,0,0,1-1.26-.22,3.05,3.05,0,0,1-1-.61,2.73,2.73,0,0,1-.65-.94,3.19,3.19,0,0,1-.23-1.22,4.76,4.76,0,0,1,.29-1.64,4.45,4.45,0,0,1,.84-1.35,4.06,4.06,0,0,1,1.28-.92,3.84,3.84,0,0,1,1.63-.34,3.74,3.74,0,0,1,1.28.21,3,3,0,0,1,1,.62,2.71,2.71,0,0,1,.64.94,2.92,2.92,0,0,1,.23,1.2,4.62,4.62,0,0,1-.29,1.67A4.05,4.05,0,0,1,301.4,31a3.93,3.93,0,0,1-1.28.91,3.84,3.84,0,0,1-1.63.34"/><path class="cls-2" d="M305.68,25.94c.05-.29.08-.56.1-.79h.93c0,.19,0,.39-.07.62s-.06.41-.09.56h0a3,3,0,0,1,1-1,2.36,2.36,0,0,1,1.31-.38l.33,0,.31.06-.23.94-.27-.06a2.69,2.69,0,0,0-.4,0,2,2,0,0,0-.77.15,1.85,1.85,0,0,0-.7.46,3.19,3.19,0,0,0-.55.81,4.4,4.4,0,0,0-.36,1.19L305.6,32h-1l.93-5.37c0-.19.08-.43.12-.73"/><polygon class="cls-1" points="217.64 32.04 216.15 32.04 216.15 18.5 211.22 18.5 211.22 17.15 222.57 17.15 222.57 18.5 217.64 18.5 217.64 32.04"/><rect class="cls-1" x="225.6" y="17.15" width="1.5" height="14.89"/><polygon class="cls-1" points="236.55 32.04 235.06 32.04 235.06 18.5 230.13 18.5 230.13 17.15 241.48 17.15 241.48 18.5 236.55 18.5 236.55 32.04"/><path class="cls-1" d="M207.89,19.55a3.7,3.7,0,0,0-1.23-1.09,3.74,3.74,0,0,0-1.8-.41,4,4,0,0,0-1.11.17,3.13,3.13,0,0,0-1,.52,2.6,2.6,0,0,0-.74.87,2.55,2.55,0,0,0-.28,1.24A2.32,2.32,0,0,0,202,22a2.68,2.68,0,0,0,.71.79,4.46,4.46,0,0,0,1,.53l1.19.42c.51.17,1,.35,1.54.55a5.41,5.41,0,0,1,1.4.77,3.57,3.57,0,0,1,1,1.19,3.89,3.89,0,0,1,.39,1.84,4.13,4.13,0,0,1-.42,1.93,4,4,0,0,1-1.09,1.33,4.62,4.62,0,0,1-1.53.78,6.15,6.15,0,0,1-1.74.25,6.73,6.73,0,0,1-1.33-.13,6.28,6.28,0,0,1-1.27-.41,4.88,4.88,0,0,1-1.12-.7,5.18,5.18,0,0,1-.91-1l1.29-1a3.79,3.79,0,0,0,1.34,1.33,3.72,3.72,0,0,0,2,.54,3.88,3.88,0,0,0,1.15-.18,3.22,3.22,0,0,0,1-.54,3.12,3.12,0,0,0,.78-.91,2.84,2.84,0,0,0,0-2.54,2.8,2.8,0,0,0-.81-.87,4.67,4.67,0,0,0-1.14-.57c-.43-.16-.88-.31-1.35-.47a14.35,14.35,0,0,1-1.43-.52,4.79,4.79,0,0,1-1.27-.77,3.55,3.55,0,0,1-.91-1.17,3.93,3.93,0,0,1-.34-1.7,3.75,3.75,0,0,1,.43-1.85,3.82,3.82,0,0,1,1.11-1.28,4.67,4.67,0,0,1,1.52-.74,6.24,6.24,0,0,1,1.64-.23,5.55,5.55,0,0,1,2.55.54,4.29,4.29,0,0,1,1.6,1.27Z"/><path class="cls-1" d="M105.75,26.74h6.49L109,18.83ZM103.59,32H102l6.36-14.89h1.45L116.08,32h-1.66l-1.62-3.91h-7.61Z"/><polygon class="cls-1" points="120.57 30.69 127.43 30.69 127.43 32.04 119.07 32.04 119.07 17.15 120.57 17.15 120.57 30.69"/><polygon class="cls-1" points="132 30.69 138.86 30.69 138.86 32.04 130.5 32.04 130.5 17.15 132 17.15 132 30.69"/><polygon class="cls-1" points="143.43 30.69 151.31 30.69 151.31 32.04 141.94 32.04 141.94 17.15 151.06 17.15 151.06 18.5 143.43 18.5 143.43 23.61 150.56 23.61 150.56 24.95 143.43 24.95 143.43 30.69"/><polygon class="cls-1" points="165.5 29.83 165.54 29.83 165.54 17.15 167.04 17.15 167.04 32.04 165.17 32.04 156.61 19.23 156.56 19.23 156.56 32.04 155.07 32.04 155.07 17.15 156.94 17.15 165.5 29.83"/><rect class="cls-1" x="177.81" y="17.15" width="1.5" height="14.89"/><polygon class="cls-1" points="194.47 29.83 194.51 29.83 194.51 17.15 196.01 17.15 196.01 32.04 194.14 32.04 185.58 19.23 185.53 19.23 185.53 32.04 184.04 32.04 184.04 17.15 185.91 17.15 194.47 29.83"/><path class="cls-2" d="M120.75,61.51a9.86,9.86,0,0,1-1.4,1.66,9,9,0,0,1-1.9,1.38,10.35,10.35,0,0,1-2.39.94,11.13,11.13,0,0,1-2.85.35,12.28,12.28,0,0,1-4.77-.91,11.18,11.18,0,0,1-3.76-2.53,11.33,11.33,0,0,1-2.47-3.83,13.69,13.69,0,0,1,0-9.71,11.39,11.39,0,0,1,6.26-6.35,12.07,12.07,0,0,1,4.72-.91,11.32,11.32,0,0,1,2.47.26,11.85,11.85,0,0,1,2.27.75,9.47,9.47,0,0,1,1.93,1.15,6.72,6.72,0,0,1,1.45,1.52l-1.93,1.43a6.25,6.25,0,0,0-1-1.11,6.56,6.56,0,0,0-1.4-1,8.83,8.83,0,0,0-1.76-.69,7.83,7.83,0,0,0-2.05-.26,9.36,9.36,0,0,0-4,.81,8.9,8.9,0,0,0-3,2.2,9.47,9.47,0,0,0-1.87,3.2,11.37,11.37,0,0,0-.65,3.83,11.13,11.13,0,0,0,.66,3.83,9.68,9.68,0,0,0,1.89,3.2,8.87,8.87,0,0,0,3,2.19,9.14,9.14,0,0,0,3.94.82,8.75,8.75,0,0,0,3.74-.82,7,7,0,0,0,3-2.61Z"/><polygon class="cls-2" points="128.35 63.17 140.56 63.17 140.56 65.25 126.03 65.25 126.03 42.18 140.17 42.18 140.17 44.27 128.35 44.27 128.35 52.19 139.4 52.19 139.4 54.27 128.35 54.27 128.35 63.17"/><polygon class="cls-2" points="148.71 63.17 159.34 63.17 159.34 65.25 146.39 65.25 146.39 42.18 148.71 42.18 148.71 63.17"/><polygon class="cls-2" points="166.42 63.17 177.05 63.17 177.05 65.25 164.1 65.25 164.1 42.18 166.42 42.18 166.42 63.17"/><path class="cls-2" d="M201.44,45.9a5.59,5.59,0,0,0-1.9-1.68,5.83,5.83,0,0,0-2.81-.64,6.06,6.06,0,0,0-1.7.26,5,5,0,0,0-1.58.8,3.93,3.93,0,0,0-1.58,3.28,3.53,3.53,0,0,0,.42,1.82A3.82,3.82,0,0,0,193.4,51a6.68,6.68,0,0,0,1.57.83l1.84.65c.8.26,1.6.54,2.4.85a8.89,8.89,0,0,1,2.17,1.18A5.69,5.69,0,0,1,203,56.34a5.9,5.9,0,0,1,.61,2.85,6.47,6.47,0,0,1-.65,3,6.36,6.36,0,0,1-1.69,2.07,7,7,0,0,1-2.38,1.2,9.51,9.51,0,0,1-2.69.39,10.36,10.36,0,0,1-2.06-.21,8.65,8.65,0,0,1-2-.64,7.75,7.75,0,0,1-1.74-1.07,7.49,7.49,0,0,1-1.42-1.5l2-1.5A6,6,0,0,0,193,63a5.81,5.81,0,0,0,3.15.83,6.14,6.14,0,0,0,1.77-.27,5,5,0,0,0,1.62-.85,4.77,4.77,0,0,0,1.2-1.4,3.92,3.92,0,0,0,.46-1.94,4,4,0,0,0-.46-2A4.26,4.26,0,0,0,199.54,56a7.61,7.61,0,0,0-1.78-.9c-.66-.24-1.36-.48-2.09-.72s-1.49-.51-2.22-.81a7.67,7.67,0,0,1-2-1.19,5.6,5.6,0,0,1-1.4-1.81,6,6,0,0,1-.53-2.64,5.91,5.91,0,0,1,.66-2.87,6.13,6.13,0,0,1,1.72-2A7.27,7.27,0,0,1,194.29,42a9.31,9.31,0,0,1,2.54-.35,8.58,8.58,0,0,1,4,.83,6.75,6.75,0,0,1,2.48,2Z"/><path class="cls-2" d="M229,61.51a9.42,9.42,0,0,1-1.4,1.66,9,9,0,0,1-1.9,1.38,10.45,10.45,0,0,1-2.38.94,11.18,11.18,0,0,1-2.85.35,12.25,12.25,0,0,1-4.77-.91A11.22,11.22,0,0,1,212,62.4a11.48,11.48,0,0,1-2.47-3.83,13.69,13.69,0,0,1,0-9.71A11.61,11.61,0,0,1,212,45a11.42,11.42,0,0,1,3.77-2.53,12,12,0,0,1,4.72-.91,11.3,11.3,0,0,1,2.46.26,11.62,11.62,0,0,1,2.27.75,9.47,9.47,0,0,1,1.93,1.15,6.51,6.51,0,0,1,1.45,1.52l-1.93,1.43a5.86,5.86,0,0,0-.95-1.11,6.56,6.56,0,0,0-1.4-1,8.83,8.83,0,0,0-1.76-.69,7.8,7.8,0,0,0-2-.26,9.37,9.37,0,0,0-4,.81,8.9,8.9,0,0,0-3,2.2,9.47,9.47,0,0,0-1.87,3.2,11.36,11.36,0,0,0-.64,3.83,11.13,11.13,0,0,0,.66,3.83,9.84,9.84,0,0,0,1.88,3.2,9,9,0,0,0,3,2.19,9.18,9.18,0,0,0,3.95.82,8.71,8.71,0,0,0,3.73-.82,7.11,7.11,0,0,0,3-2.61Z"/><rect class="cls-2" x="234.22" y="42.18" width="2.32" height="23.07"/><polygon class="cls-2" points="246.21 63.17 258.41 63.17 258.41 65.25 243.89 65.25 243.89 42.18 258.03 42.18 258.03 44.27 246.21 44.27 246.21 52.19 257.26 52.19 257.26 54.27 246.21 54.27 246.21 63.17"/><polygon class="cls-2" points="280.42 61.84 280.48 61.84 280.48 42.18 282.8 42.18 282.8 65.26 279.9 65.26 266.63 45.41 266.56 45.41 266.56 65.26 264.25 65.26 264.25 42.18 267.15 42.18 280.42 61.84"/><path class="cls-2" d="M309.44,61.51A9.48,9.48,0,0,1,308,63.17a8.68,8.68,0,0,1-1.89,1.38,10.35,10.35,0,0,1-2.39.94,11.13,11.13,0,0,1-2.85.35,12.25,12.25,0,0,1-4.77-.91,11.18,11.18,0,0,1-3.76-2.53,11.33,11.33,0,0,1-2.47-3.83,13.69,13.69,0,0,1,0-9.71,11.39,11.39,0,0,1,6.26-6.35,12.07,12.07,0,0,1,4.72-.91,11.32,11.32,0,0,1,2.47.26,11.85,11.85,0,0,1,2.27.75,9.47,9.47,0,0,1,1.93,1.15A6.72,6.72,0,0,1,309,45.28l-1.93,1.43a6.25,6.25,0,0,0-.95-1.11,6.56,6.56,0,0,0-1.4-1,8.83,8.83,0,0,0-1.76-.69,7.83,7.83,0,0,0-2.05-.26,9.36,9.36,0,0,0-4,.81,8.8,8.8,0,0,0-3,2.2,9.47,9.47,0,0,0-1.87,3.2,11.37,11.37,0,0,0-.65,3.83,11.13,11.13,0,0,0,.66,3.83,9.68,9.68,0,0,0,1.89,3.2,8.87,8.87,0,0,0,3,2.19,9.14,9.14,0,0,0,3.94.82,8.75,8.75,0,0,0,3.74-.82,7,7,0,0,0,3-2.61Z"/><polygon class="cls-2" points="317.04 63.17 329.25 63.17 329.25 65.26 314.72 65.26 314.72 42.18 328.86 42.18 328.86 44.27 317.04 44.27 317.04 52.19 328.09 52.19 328.09 54.27 317.04 54.27 317.04 63.17"/><path class="cls-2" d="M27.87,17.74a42.64,42.64,0,0,0,0-15.28A41.64,41.64,0,0,0,14.79,10.1a41.85,41.85,0,0,0,13.08,7.64"/><path class="cls-2" d="M22.91,31.31a43,43,0,0,0,4.41-11.06,44.56,44.56,0,0,1-14.41-8.43A42.52,42.52,0,0,0,1.21,32.28a44.8,44.8,0,0,1,14.4,8.41,42,42,0,0,0,7.3-9.38"/><path class="cls-2" d="M56,17.74A41.87,41.87,0,0,0,69.07,10.1,41.75,41.75,0,0,0,56,2.47a42.81,42.81,0,0,0,0,15.27"/><path class="cls-2" d="M.69,50a42.11,42.11,0,0,0,13-7.62,42.11,42.11,0,0,0-13-7.62A42.42,42.42,0,0,0,.69,50"/><path class="cls-2" d="M56,67.1a43,43,0,0,0,0,15.27,41.87,41.87,0,0,0,13-7.63A41.87,41.87,0,0,0,56,67.1"/><path class="cls-2" d="M82.64,52.55a44.57,44.57,0,0,1-14.39-8.41,42.23,42.23,0,0,0-7.31,9.38,42.75,42.75,0,0,0-4.39,11.07A44.62,44.62,0,0,1,71,73,42.53,42.53,0,0,0,82.64,52.55"/><path class="cls-2" d="M12.91,73a44.41,44.41,0,0,1,14.4-8.43,42.58,42.58,0,0,0-4.4-11.06,42.31,42.31,0,0,0-7.3-9.39,44.64,44.64,0,0,1-14.4,8.42A42.56,42.56,0,0,0,12.91,73"/><path class="cls-2" d="M68.25,40.69a44.75,44.75,0,0,1,14.39-8.41,42.52,42.52,0,0,0-11.7-20.46,44.27,44.27,0,0,1-14.39,8.42,42.75,42.75,0,0,0,4.39,11.07,41.78,41.78,0,0,0,7.31,9.38"/><path class="cls-2" d="M83.16,34.8a42.23,42.23,0,0,0-13,7.62,42.43,42.43,0,0,0,13,7.62,42.42,42.42,0,0,0,0-15.24"/><path class="cls-2" d="M30.25,66.32a45.35,45.35,0,0,1,0,16.83,41.24,41.24,0,0,0,23.37,0,45.56,45.56,0,0,1,0-16.83,41.17,41.17,0,0,0-23.35,0"/><path class="cls-2" d="M27.83,82.37a43,43,0,0,0,0-15.27,41.71,41.71,0,0,0-13,7.64,41.71,41.71,0,0,0,13,7.63"/><path class="cls-2" d="M53.6,18.52a45.83,45.83,0,0,1,0-16.84,41.41,41.41,0,0,0-23.35,0,45,45,0,0,1,0,16.85A41.6,41.6,0,0,0,41.93,20.2,41.31,41.31,0,0,0,53.6,18.52"/><path class="cls-1" d="M58.76,32.58A45.36,45.36,0,0,1,54.14,21a44,44,0,0,1-12.21,1.74A43.55,43.55,0,0,1,29.73,21a45.35,45.35,0,0,1-4.64,11.57,44.93,44.93,0,0,1-7.63,9.84,44.34,44.34,0,0,1,7.63,9.83,45.06,45.06,0,0,1,4.62,11.58,43.75,43.75,0,0,1,24.43,0,45.79,45.79,0,0,1,4.62-11.58,44.64,44.64,0,0,1,7.63-9.83,44.93,44.93,0,0,1-7.63-9.84"/></g></g></svg>