<svg width="1em" height="1em" fill="currentColor" aria-hidden="true" data-icon="aim" focusable="false" version="1.1" viewBox="64 64 896 896" xmlns="http://www.w3.org/2000/svg">
 <defs>
  <style/>
 </defs>
 <path d="m482 64c-4.4 0-8 3.6-8 8v122.2c-146.4 17.3-262.5 133.4-279.8 279.8h-122.2c-4.4 0-8 3.6-8 8v60c0 4.4 3.6 8 8 8h122.2c9.9338 84.064 52.444 158.14 114.56 209.25l54.098-54.098c-57.709-44.618-94.857-114.53-94.857-193.15 0-134.8 109.2-244 244-244 78.623 0 148.54 37.148 193.15 94.857l54.098-54.098c-51.115-62.116-125.19-104.63-209.25-114.56v-122.2c0-4.4-3.6-8-8-8h-60zm313.19 298.74-57.154 57.154c11.585 28.417 17.969 59.512 17.969 92.104 0 134.8-109.2 244-244 244-32.591 0-63.687-6.3835-92.104-17.969l-57.154 57.154c33.932 17.917 71.476 29.914 111.26 34.615v122.2c0 4.4 3.6 8 8 8h60c4.4 0 8-3.6 8-8v-122.2c146.4-17.3 262.5-133.4 279.8-279.8h122.2c4.4 0 8-3.6 8-8v-60c0-4.4-3.6-8-8-8h-122.2c-4.701-39.781-16.698-77.325-34.615-111.26z"/>
 <path d="m512 392c-32.1 0-62.101 12.399-84.801 35.199-22.7 22.7-35.199 52.701-35.199 84.801s12.499 62.101 35.199 84.801c7.545 7.5118 15.909 13.918 24.887 19.125l163.87-163.87c-5.2039-8.9674-11.615-17.32-19.152-24.857a118.57 118.57 0 0 0-84.801-35.199zm119.09 134.84-104.25 104.25c26.388-3.2475 50.812-15.138 69.967-34.293 19.068-19.153 31.018-43.574 34.287-69.959z"/>
 <path d="m883.87 97.818-789.86 789.86a31.735 31.735 0 0 0 0 44.848 31.735 31.735 0 0 0 44.848 0l789.86-789.86a31.735 31.735 0 0 0 0-44.848 31.735 31.735 0 0 0-44.848 0z" />
</svg>
