<svg width="1em" height="1em" fill="currentColor" aria-hidden="true" data-icon="heat-map" focusable="false" version="1.1" viewBox="64 64 896 896" xmlns="http://www.w3.org/2000/svg">
 <path d="m141.37 150.6-76 0.08398 0.042968 38 0.75586 684.28 891.28 0.7793 0.06641-76-706.03-0.61719c0.00174-0.02408 0.00412-0.04817 0.00586-0.07226h-44.488-5.6641c-6.5e-4 0.00976-0.00131 0.01953-0.00196 0.02929l-32.916-0.02929h-27.049v-57.879-588.57zm710.06 89.918-1.7402 24.939c-5.6399 80.912-12.795 178.29-33.211 252.62-10.208 37.164-23.87 68.248-40.082 88.248-16.213 20-32.764 29.484-57.098 29.484-26.407 0-47.706-14.208-69.748-41.359s-42.136-66.033-61.383-105.74c-19.246-39.705-37.591-80.095-59.85-112.12-11.129-16.015-23.297-30.153-38.398-40.645-15.101-10.491-34.02-16.886-53.779-15.107-37.151 3.3437-68.533 27.627-95.725 60.76-27.191 33.133-51.028 76.643-71.441 125.99-28.984 70.072-50.921 151.86-61.75 231.59h50.611c10.631-73.216 31.057-148.93 57.342-212.47 19.087-46.145 41.336-85.906 63.889-113.39 22.553-27.48 44.572-41.153 61.557-42.682 7.3087-0.6578 12.987 0.96605 20.77 6.373 7.7828 5.407 16.785 15.049 25.865 28.115 18.16 26.133 36.392 65.12 55.918 105.4 19.526 40.282 40.402 81.995 67.557 115.44s63.281 59.844 108.57 59.844c39.469 0 72.827-19.486 95.939-47.998s38.192-65.484 49.455-106.49c22.527-82.013 29.233-181.44 34.875-262.38l1.7402-24.939-49.879-3.4766z" stop-color="#000000"/>
</svg>
