<svg width="1em" height="1em" fill="currentColor" aria-hidden="true" data-icon="line-plot" focusable="false" version="1.1" viewBox="64 64 896 896" xmlns="http://www.w3.org/2000/svg">
 <path d="m910.16 82.85a31.735 31.735 0 0 0-22.426 9.2793l-331.53 331.53c-8.8029-16.821-17.957-32.781-27.891-47.076-11.129-16.015-23.297-30.153-38.398-40.645-13.214-9.18-29.349-15.222-46.414-15.398-2.4378-0.02514-4.8954 0.06872-7.3652 0.29102-37.151 3.3437-68.533 27.627-95.725 60.76-27.191 33.133-51.028 76.643-71.441 125.99-28.984 70.072-50.921 151.86-61.75 231.59h33.473l-57.893 57.893-14.387-0.01367h-27.049v-57.879-588.57l-76 0.08398 0.042968 38 0.75586 684.28 40.705 0.03516-8.9941 8.9941a31.735 31.735 0 0 0 0 44.85 31.735 31.735 0 0 0 44.848 0l789.86-789.86a31.735 31.735 0 0 0 0-44.848 31.735 31.735 0 0 0-22.424-9.2793zm-9.7988 174.67-54.016 54.016c-5.3816 69.88-13.21 145.88-29.871 206.54-10.208 37.164-23.87 68.248-40.082 88.248-16.213 20-32.764 29.484-57.098 29.484-26.407 0-47.706-14.208-69.748-41.359-11.826-14.567-23.09-32.511-33.965-52.146l-36.758 36.756v0.00195c9.7371 16.647 20.241 32.538 31.904 46.904 27.155 33.448 63.281 59.844 108.57 59.844 39.469 0 72.827-19.486 95.939-47.998s38.192-65.484 49.455-106.49c22.527-82.013 29.233-181.44 34.875-262.38l0.79687-11.416zm-457.07 112.97c6.0895-0.05593 11.288 1.7786 18.098 6.5098 7.7828 5.407 16.785 15.049 25.865 28.115 10.467 15.063 20.958 34.397 31.707 55.787l-257.94 257.94c11.26-66.761 30.292-134.46 54.15-192.14 19.087-46.145 41.336-85.906 63.889-113.39 22.553-27.48 44.572-41.153 61.557-42.682 0.91359-0.08222 1.8019-0.12872 2.6719-0.13672zm-82.629 426.73-75.934 75.934 672.71 0.58789 0.06641-76-596.85-0.52148z" />
</svg>
