<svg width="1em" height="1em" version="1.1" viewBox="0 0 16 16" xmlns="http://www.w3.org/2000/svg">
 <path 
    fill="currentColor" 
    d="m4.7229e-4 7.0009 0.55584-5.8704c0.028167-0.30423 0.27041-0.5446 0.57461-0.57465l5.8701-0.55587h0.00751c0.06009 0 0.10704 0.018779 0.14271 0.05446l8.7939 8.7944a0.18703 0.18704 0 0 1 0 0.26479l-6.8315 6.8319c-0.03568 0.03567-0.08263 0.05446-0.13333 0.05446-0.050702 0-0.097648-0.01877-0.13333-0.05446l-8.7939-8.7944c-0.03756-0.039437-0.05634-0.093897-0.052579-0.15023zm8.9816 7.0592 5.0776-5.0779-7.5057-7.5061-4.6382 0.43944-0.43941 4.6385zm-4.1368-10.868c0.91074 0 1.6525 0.74178 1.6525 1.6526 0 0.9108-0.74174 1.6526-1.6525 1.6526-0.91075 0-1.6525-0.74178-1.6525-1.6526 0-0.9108 0.74174-1.6526 1.6525-1.6526zm0 2.2535c0.33238 0 0.6009-0.26854 0.6009-0.60094s-0.26853-0.60094-0.6009-0.60094c-0.33238 0-0.6009 0.26854-0.6009 0.60094s0.26853 0.60094 0.6009 0.60094z"
  />
</svg>
