<?xml version="1.0" encoding="UTF-8"?>
<svg id="icon-resetView-2" data-name="icon-resetView" xmlns="http://www.w3.org/2000/svg" width="20" height="20" viewBox="0 0 20 20">
  <path id="corner-top-left" d="M.6,5.48c-.28,0-.5-.22-.5-.5V.09H4.99c.28,0,.5,.22,.5,.5s-.22,.5-.5,.5H1.1v3.89c0,.28-.22,.5-.5,.5Z" fill="currentColor"/>
  <path id="corner-bottom-left" d="M4.99,19.91H.1v-4.88c0-.28,.22-.5,.5-.5s.5,.22,.5,.5v3.88h3.89c.28,0,.5,.22,.5,.5s-.22,.5-.5,.5Z" fill="currentColor"/>
  <path id="corner-bottom-right" d="M19.9,19.91h-4.89c-.28,0-.5-.22-.5-.5s.22-.5,.5-.5h3.89v-3.88c0-.28,.22-.5,.5-.5s.5,.22,.5,.5v4.88Z" fill="currentColor"/>
  <path id="corner-top-right" d="M19.4,6.11c-.28,0-.5-.22-.5-.5V1.09h-4.51c-.28,0-.5-.22-.5-.5s.22-.5,.5-.5h5.51V5.61c0,.28-.22,.5-.5,.5Z" fill="currentColor"/>
  <path id="frame" d="M16.46,16.46H3.54V3.54h12.92v12.92Zm-10.92-2H14.46V5.54H5.54V14.46Z" fill="currentColor"/>
</svg>