<svg width="1em" height="1em" fill="currentColor" aria-hidden="true" data-icon="heat-map" focusable="false" version="1.1" viewBox="64 64 896 896" xmlns="http://www.w3.org/2000/svg">
 <path d="m906.55 86.514a31.735 31.735 0 0 0-22.424 9.2773l-352.25 352.25c-15.708-28.944-31.684-56.929-49.92-80.404-25.26-32.517-58.733-58.86-100.68-55.482-39.824 3.2063-75.053 27.067-105.85 60.635s-57.976 77.897-81.223 128.17c-21.105 45.642-38.937 96.169-52.279 147.93l-0.50781-460.29-0.04297-38-76 0.08398 0.042968 38 0.75586 684.28 40.754 0.03516-12.658 12.658a31.735 31.735 0 0 0 0 44.85 31.735 31.735 0 0 0 40.049 3.9356 31.735 31.735 0 0 1 3.7109-4.4453l789.86-789.86a31.735 31.735 0 0 1 4.793-3.9492 31.735 31.735 0 0 0-3.7031-40.393 31.735 31.735 0 0 0-22.424-9.2773zm1.0039 163.87-52.93 52.928c-4.0158 59.625-11.387 123.69-25.76 179.19-11.707 45.203-28.203 84.393-49.072 110.47-20.869 26.082-43.881 39.633-77.041 39.633-32.322 0-57.68-15.509-82.883-43.279-7.7556-8.5456-15.28-18.199-22.619-28.645l-35.881 35.881c6.7931 9.2101 13.926 18.049 21.475 26.367 30.747 33.878 70.699 59.676 119.91 59.676 48.373 0 88.29-23.661 116.08-58.395s45.688-79.962 58.434-129.18c20.598-79.535 27.373-170.34 30.287-244.65zm-518.62 111.47c18.093 0.03151 34.124 11.475 53.535 36.463 17.213 22.158 34.406 53.251 52.477 86.658l-312.09 312.09-15.613-0.01367c7.2722-91.177 34.425-193.1 72.342-275.1 21.675-46.876 46.907-87.259 72.682-115.35 25.775-28.094 51.277-42.847 73.018-44.598 1.2262-0.09871 2.4422-0.14663 3.6484-0.14453zm-28.217 435.37-75.934 75.934 672.66 0.58789 0.06641-76-596.8-0.52148z" stroke-linecap="square"/>
</svg>
