<svg width="16" height="16" version="1.1" viewBox="0 0 16 16" xmlns="http://www.w3.org/2000/svg">
 <g display="none">
  <circle cx="8" cy="8" r="8" fill="none" opacity=".88017" stroke="#68b3ff" stroke-width=".05" style="paint-order:markers fill stroke"/>
 </g>
 <path d="m15.057 0.38086a0.56901 0.56901 0 0 0-0.40234 0.16602l-1.4531 1.4531h-12.201c-0.54427 0-1 0.45573-1 1v10.125c0 0.54427 0.45573 1 1 1h0.076172l-0.58398 0.58398a0.56901 0.56901 0 0 0 0 0.80469 0.56901 0.56901 0 0 0 0.80469 0l14.162-14.162a0.56901 0.56901 0 0 0 0-0.80469 0.56901 0.56901 0 0 0-0.40234-0.16602zm0.80469 2.1191-0.98633 0.98633v9.1992l-4.5996-4.5996-6.0391 6.0391h10.764c0.54427 0 1-0.45573 1-1v-10.125c0-0.18131-0.051102-0.35192-0.13867-0.5zm-14.736 0.625h10.951l-7.0898 7.0898-0.39648-0.39844a0.41337 0.41337 0 0 0-0.58594 0l-2.8789 2.8809v-9.5723zm3.0977 1.4473c-0.7907 0-1.4277 0.63704-1.4277 1.4277s0.63704 1.4277 1.4277 1.4277c0.7907 0 1.4277-0.63704 1.4277-1.4277s-0.63704-1.4277-1.4277-1.4277z" stop-color="#000000" style="-inkscape-stroke:none;font-variation-settings:normal;paint-order:markers fill stroke"/>
</svg>
