<svg width="16" height="16" fill="currentColor" aria-hidden="true" version="1.1" viewBox="0 0 16 16"
    xmlns="http://www.w3.org/2000/svg">
    <path
        d="m3.011 2.0692c-0.54427 0-1 0.45073-1 0.98828v8.0234c0 0.53755 0.45573 0.98828 1 0.98828h12c0.54427 0 1-0.45073 1-0.98828v-8.0234c0-0.53755-0.45573-0.98828-1-0.98828zm0.125 1.1113h11.75v7.707l-4.6504-4.6504a0.33435 0.33435 0 0 0-0.47266 0l-2.7637 2.7637-0.76367-0.76367a0.33435 0.33435 0 0 0-0.47266 0l-2.627 2.627zm2.9634 0.99325c0.69193 0 1.249 0.55704 1.249 1.249 0 0.69193-0.55704 1.249-1.249 1.249-0.69193 0-1.249-0.55704-1.249-1.249 0-0.69193 0.55704-1.249 1.249-1.249zm-5.5259-1.1046c-0.31162 0-0.5625 0.25088-0.5625 0.5625v9.4375a1 1 0 0 0 1 1h13.5c0.277 0 0.5-0.223 0.5-0.5v-0.125c0-0.277-0.223-0.5-0.5-0.5h-13.375v-9.3125c0-0.31162-0.25088-0.5625-0.5625-0.5625z" />
</svg>