<svg width="16" height="16" fill="currentColor" aria-hidden="true" version="1.1" viewBox="0 0 16 16"
    xmlns="http://www.w3.org/2000/svg">
    <path
        d="m14.865 0.52432a0.5625 0.5625 0 0 0-0.25195 0.14648l-1.3984 1.3984h-10.203c-0.54427 0-1 0.45073-1 0.98828v8.0234c0 0.53755 0.45573 0.98828 1 0.98828h0.20312l-0.875 0.875h-1.2031v-9.3125c0-0.31162-0.25088-0.5625-0.5625-0.5625s-0.5625 0.25088-0.5625 0.5625v9.4375a1 1 0 0 0 1 1h0.20312l-0.60156 0.60156a0.5625 0.5625 0 0 0 0 0.79688 0.5625 0.5625 0 0 0 0.79687 0l14-14a0.5625 0.5625 0 0 0 0-0.79687 0.5625 0.5625 0 0 0-0.54492-0.14648zm0.99414 2.0254-0.97266 0.97266v7.3652l-3.6836-3.6816-4.8633 4.8633h8.6719c0.54427 0 1-0.45073 1-0.98828v-8.0234c0-0.18541-0.058974-0.35799-0.15234-0.50781zm-12.723 0.63086h8.9668l-5.4629 5.4629-0.4043-0.40625a0.33435 0.33435 0 0 0-0.47266 0l-2.627 2.627v-7.6836zm2.9629 0.99414c-0.69193 0-1.248 0.55612-1.248 1.248 0 0.69193 0.55612 1.248 1.248 1.248 0.69193 0 1.25-0.55612 1.25-1.248 0-0.69193-0.55807-1.248-1.25-1.248zm-0.63477 8.7695-1.125 1.125h10.172c0.277 0 0.5-0.223 0.5-0.5v-0.125c0-0.277-0.223-0.5-0.5-0.5h-9.0469z" />
</svg>