<svg width="1em" height="1em" fill="currentColor" aria-hidden="true" data-icon="heat-map" focusable="false" version="1.1" viewBox="64 64 896 896" xmlns="http://www.w3.org/2000/svg">
 <path d="m141.37 150.6-76 0.08398 0.042968 38 0.75586 684.28 891.28 0.7793 0.06641-76-790.27-0.6914c7.2722-91.177 34.425-193.1 72.342-275.1 21.675-46.876 46.907-87.259 72.682-115.35 25.775-28.094 51.277-42.847 73.018-44.598 19.619-1.5795 36.478 9.6651 57.184 36.318s41.382 66.234 63.592 107.22c22.21 40.987 46.037 83.518 76.783 117.4 30.747 33.878 70.699 59.676 119.91 59.676 48.373 0 88.29-23.661 116.08-58.395s45.688-79.962 58.434-129.18c25.492-98.431 29.81-214.12 31.844-294.46l0.63281-24.992-49.984-1.2656-0.63281 24.992c-2.0156 79.641-6.8482 192.78-30.262 283.19-11.707 45.203-28.203 84.393-49.072 110.47-20.869 26.082-43.881 39.633-77.041 39.633-32.322 0-57.68-15.509-82.883-43.279-25.203-27.77-47.966-67.23-69.85-107.62-21.884-40.385-42.806-81.556-68.066-114.07-25.26-32.517-58.733-58.86-100.68-55.482-39.824 3.2063-75.053 27.067-105.85 60.635s-57.976 77.897-81.223 128.17c-21.105 45.642-38.937 96.169-52.279 147.93l-0.50781-460.29-0.04297-38z" stroke-linecap="square"/>
</svg>
