<svg width="1em" height="1em" fill="currentColor" aria-hidden="true" data-icon="bar-chart" focusable="false" version="1.1" viewBox="64 64 896 896" xmlns="http://www.w3.org/2000/svg">
 <path d="m906.34 86.693a31.735 31.735 0 0 0-22.424 9.2793l-379.92 379.92v-91.889c0-4.4-3.6-8-8-8h-56c-4.4 0-8 3.6-8 8v163.89l-80 80v-67.889c0-4.4-3.6-8-8-8h-56c-4.4 0-8 3.6-8 8v139.89l-80 80v-611.89c0-4.4-3.6-8-8-8h-56c-4.4 0-8 3.6-8 8v683.89l-33.945 33.945a31.735 31.735 0 0 0 0 44.848 31.735 31.735 0 0 0 40.049 3.9336 31.735 31.735 0 0 1 3.7109-4.4414l789.86-789.86a31.735 31.735 0 0 1 4.7891-3.9473 31.735 31.735 0 0 0-3.7012-40.393 31.735 31.735 0 0 0-22.424-9.2793zm-98.34 263.21-72 72v282.1c0 4.4 3.6 8 8 8h56c4.4 0 8-3.6 8-8v-354.1zm-152 152-72 72v130.1c0 4.4 3.6 8 8 8h56c4.4 0 8-3.6 8-8v-202.1zm-152 152-58.098 58.098h50.098c4.4 0 8-3.6 8-8v-50.098zm-138.1 138.1-72 72h594.1c4.4 0 8-3.6 8-8v-56c0-4.4-3.6-8-8-8h-522.1z"/>
</svg>
