<svg width="16" height="16" version="1.1" viewBox="0 0 16 16" xmlns="http://www.w3.org/2000/svg">
 <g display="none">
  <circle cx="8" cy="8" r="8" fill="none" opacity=".88017" stroke="#68b3ff" stroke-width=".05" style="paint-order:markers fill stroke"/>
 </g>
 <path d="m1 2c-0.54427 0-1 0.45573-1 1v10.125c0 0.54427 0.45573 1 1 1h14c0.54427 0 1-0.45573 1-1v-10.125c0-0.54427-0.45573-1-1-1h-14zm0.125 1.125h13.75v9.5605l-5.3398-5.3418a0.41337 0.41337 0 0 0-0.58594 0l-3.416 3.418-0.94336-0.94531a0.41337 0.41337 0 0 0-0.58594 0l-2.8789 2.8809v-9.5723zm3.0977 1.4473c-0.7907 0-1.4277 0.63704-1.4277 1.4277s0.63704 1.4277 1.4277 1.4277c0.7907 0 1.4277-0.63704 1.4277-1.4277s-0.63704-1.4277-1.4277-1.4277z" stop-color="#000000" style="-inkscape-stroke:none;font-variation-settings:normal;paint-order:markers fill stroke"/>
</svg>
