<svg width="1em" height="1em" fill="currentColor" aria-hidden="true" data-icon="plus-circle" focusable="false" version="1.1" viewBox="64 64 896 896" xmlns="http://www.w3.org/2000/svg">
 <path d="m512 63.75c-118.87 0-232.91 47.236-316.96 131.29s-131.29 198.09-131.29 316.96 47.236 232.91 131.29 316.96 198.09 131.29 316.96 131.29 232.91-47.236 316.96-131.29 131.29-198.09 131.29-316.96-47.236-232.91-131.29-316.96-198.09-131.29-316.96-131.29zm0 76.5c98.609 0 193.14 39.156 262.87 108.88s108.88 164.26 108.88 262.87-39.156 193.14-108.88 262.87-164.26 108.88-262.87 108.88-193.14-39.156-262.87-108.88-108.88-164.26-108.88-262.87 39.156-193.14 108.88-262.87 164.26-108.88 262.87-108.88z" stroke-linecap="square" stroke-linejoin="bevel"/>
 <path d="m639.31 512a127.31 127.31 0 0 1-127.31 127.31 127.31 127.31 0 0 1-127.31-127.31 127.31 127.31 0 0 1 127.31-127.31 127.31 127.31 0 0 1 127.31 127.31z"/>
</svg>
