<svg width="1em" height="1em" viewBox="2 2 28 28" fill="currentColor"
    xmlns="http://www.w3.org/2000/svg">
    <path
        d="M27.7594 23.6688H26.0781C25.9469 23.6688 25.8375 23.7781 25.8375 23.9094V25.8406H6.15938V6.15938H25.8406V8.09062C25.8406 8.22187 25.95 8.33125 26.0812 8.33125H27.7625C27.8938 8.33125 28.0031 8.225 28.0031 8.09062V4.95937C28.0031 4.42812 27.575 4 27.0438 4H4.95937C4.42812 4 4 4.42812 4 4.95937V27.0406C4 27.5719 4.42812 28 4.95937 28H27.0406C27.5719 28 28 27.5719 28 27.0406V23.9094C28 23.775 27.8906 23.6688 27.7594 23.6688ZM28.3406 15.8031L23.9062 12.3031C23.7406 12.1719 23.5 12.2906 23.5 12.5V14.875H13.6875C13.55 14.875 13.4375 14.9875 13.4375 15.125V16.875C13.4375 17.0125 13.55 17.125 13.6875 17.125H23.5V19.5C23.5 19.7094 23.7437 19.8281 23.9062 19.6969L28.3406 16.1969C28.3705 16.1735 28.3947 16.1436 28.4113 16.1095C28.4279 16.0754 28.4365 16.0379 28.4365 16C28.4365 15.9621 28.4279 15.9246 28.4113 15.8905C28.3947 15.8564 28.3705 15.8265 28.3406 15.8031Z"
    />
</svg>
    