<svg width="1em" height="1em" fill="currentColor" aria-hidden="true" data-icon="plus-circle" focusable="false" version="1.1" viewBox="64 64 896 896" xmlns="http://www.w3.org/2000/svg">
 <path d="m512 63.75c-118.87 0-232.91 47.236-316.96 131.29s-131.29 198.09-131.29 316.96c0 108.26 39.179 212.51 109.67 293.75l-78.172 78.172a31.735 31.735 0 0 0 0 44.85 31.735 31.735 0 0 0 44.85 0l789.86-789.86a31.735 31.735 0 0 0 0-44.848 31.735 31.735 0 0 0-44.848 0l-79.354 79.352c-81.243-70.489-185.5-109.67-293.75-109.67zm0 76.5c87.987 0 172.73 31.175 239.5 87.426l-174.73 174.73a127.31 127.31 0 0 0-64.77-17.707 127.31 127.31 0 0 0-127.3 127.3 127.31 127.31 0 0 0 17.707 64.77l-174.73 174.73c-56.25-66.77-87.426-151.51-87.426-239.5 0-98.609 39.156-193.14 108.88-262.87s164.26-108.88 262.87-108.88zm375.78 127.38-55.549 55.547v0.00196c33.448 56.726 51.52 121.83 51.52 188.82 0 98.609-39.156 193.14-108.88 262.87s-164.26 108.88-262.87 108.88c-66.988 0-132.09-18.071-188.82-51.52h-0.00196l-55.547 55.549c72.179 46.932 156.97 72.471 244.37 72.471 118.87 0 232.91-47.236 316.96-131.29s131.29-198.09 131.29-316.96c0-87.4-25.539-172.19-72.471-244.37zm-248.54 248.54-123.06 123.06a127.31 127.31 0 0 0 123.06-123.06z" stroke-linecap="square" stroke-linejoin="bevel"/>
</svg>
