<svg width="1em" height="1em" fill="currentColor" aria-hidden="true" data-icon="heat-map" focusable="false" version="1.1" viewBox="64 64 896 896" xmlns="http://www.w3.org/2000/svg">
 <path d="m104.84 149.21c-21.186 0-39.426 18.242-39.426 39.428v645.64c0 21.185 18.24 39.426 39.426 39.426h814.64c21.186 0 39.426-18.24 39.426-39.426v-645.64c0-21.185-18.24-39.428-39.426-39.428h-814.64zm36.574 76h30.092c-21.311 81.102-10.735 149.92 7.4336 216.15 19.785 72.117 47.559 142.3 56.904 232.63 5.7676 55.754 19.45 95.738 37.016 123.71h-131.45v-572.49zm82.055 0h78.156c-27.322 90.335-22.664 196.96 23.016 289.19 19.589 39.552 26.129 115.82 64.305 182.2 26.204 45.563 70.406 84.289 142.02 101.1h-190.36c-20.082-12.11-46.115-42.705-55.027-128.86-10.109-97.725-39.664-172.35-58.422-240.72-18.25-66.522-27.243-126.04-3.6875-202.92zm130.85 0h140.07c-8.3808 6.9566-16.32 14.576-23.756 22.727-58.378 63.988-88.312 165.18-39.104 249.69 40.219 69.073 41.649 116.59 64.383 157.88 11.367 20.642 31.353 38.299 58.998 46.332 27.645 8.0332 62.408 9.229 112.79 5.9785 96.781-6.244 166.61-21.746 215.2-58.033v46.416c-61.688 32.443-141.53 53.202-238.96 59.488-131.71 8.4986-181.15-30.952-211.66-84.006-30.512-53.054-35.535-124.33-62.842-179.46-41.789-84.374-43.404-186.27-15.127-267zm351.18 0h177.4v56.793c-5.4008-1.7963-10.822-3.1287-16.125-4.0586-50.152-8.7944-98.058 1.1977-161.28-52.734zm-98.381 6.7109c20.123 0.46156 39.727 7.9064 59.439 25.641 78.384 70.519 154.41 63.113 191.58 69.631 11.968 2.0987 18.99 3.7419 24.762 9.1738v241.43c-7.0176 11.08-15.667 20.58-26.09 28.959-34.945 28.091-96.188 44.959-192.33 51.162-47.847 3.087-78.194 0.96724-95.617-4.0957-17.423-5.063-22.461-10.284-29.152-22.436-13.383-24.304-20.203-82.031-64.973-158.92-35.755-61.407-13.607-139.93 32.832-190.83 23.22-25.451 51.844-42.869 79.229-47.971 6.8462-1.2754 13.613-1.898 20.32-1.7441zm-7.1348 120.21c-3.6357-0.0129-7.2562 0.17728-10.867 0.5957-14.444 1.6737-29.981 7.9729-39.945 21.277-9.9643 13.304-12.304 30.585-9.7852 47.809 2.5192 17.224 9.4614 35.809 20.947 57.699 13.505 25.738 10.75 42.52 18.406 66.172 3.8281 11.826 14.743 26.364 29.582 32.256 14.838 5.8918 30.688 6.3031 52.619 4.8965 40.98-2.6286 77.564-4.5738 106.77-16.586 14.604-6.0061 29.384-16.183 35.82-33.379 6.4366-17.196 2.275-35.791-6.6719-52.879-31.757-60.652-103.29-107.22-163.62-123-11.312-2.9601-22.353-4.8188-33.26-4.8574zm-0.34766 50.057c5.4225 0.0726 12.717 1.0171 20.951 3.1719 43.916 11.492 111.08 57.919 131.98 97.826 4.366 8.3386 4.2086 11.553 4.1348 12.121-0.21941 0.27544-1.7038 2.1085-8.0078 4.7012-15.235 6.2656-50.543 10.338-90.951 12.93-18.762 1.2035-28.822-0.61646-30.969-1.4688-0.178-0.0707-0.15515 0.00798-0.26953-0.01172 1e-3 -0.26654 0.0221-0.50623-0.19336-1.1719-2.3389-7.2254-2.8345-38.05-21.701-74.006-9.8029-18.682-14.465-32.928-15.748-41.703-1.2305-8.4125 0.24519-10.493 0.32813-10.596h-0.00196v-0.00196-0.00195c0.02218-0.07444 0.63003-0.99645 5.6836-1.582 1.3572-0.15727 2.9581-0.23123 4.7656-0.20703zm283.27 349.69v45.824h-161.35c60.557-9.126 114.46-24.445 161.35-45.824z" stroke-linecap="square" stroke-linejoin="bevel"/>
</svg>
