<svg width="1em" height="1em" aria-hidden="true" data-icon="heat-map" focusable="false" version="1.1" viewBox="64 64 896 896" xmlns="http://www.w3.org/2000/svg">
 <path d="m907.89 90.453a31.735 31.735 0 0 0-22.424 9.2793l-49.479 49.479h-731.15c-21.186 0-39.426 18.242-39.426 39.428v645.64c0 21.185 18.24 39.426 39.426 39.426h6.6582l-15.889 15.889a31.735 31.735 0 0 0 0 44.848 31.735 31.735 0 0 0 44.848 0l789.86-789.86a31.735 31.735 0 0 0 0-44.848 31.735 31.735 0 0 0-22.424-9.2793zm51.012 113.86-76.008 76.008v1.6875c-0.42379-0.14096-0.84751-0.28075-1.2715-0.41602l-43.252 43.252c7.4169 0.67749 14.048 1.3516 19.762 2.3535 11.968 2.0987 18.99 3.7419 24.762 9.1738v241.43c-7.0176 11.08-15.667 20.58-26.09 28.959-34.945 28.091-96.188 44.959-192.33 51.162-47.847 3.087-78.194 0.96724-95.617-4.0957-17.423-5.063-22.459-10.284-29.15-22.436-0.88956-1.6155-1.7511-3.3785-2.5957-5.2852l-36.723 36.723c11.812 17.439 30.202 31.95 54.518 39.016 27.645 8.0332 62.407 9.229 112.79 5.9785 96.781-6.244 166.61-21.746 215.2-58.033v46.416c-61.688 32.443-141.53 53.202-238.96 59.488-101.22 6.5311-153.85-15.257-186.64-49.773l-34.602 34.602c26.05 25.662 61.253 46.145 108.27 57.182h-165.45l-76.004 76.004h629.97c21.186 0 39.426-18.24 39.426-39.426v-629.97zm-735.44 20.891v0.01172h78.156c-27.322 90.335-22.664 196.96 23.016 289.19 12.833 25.91 20.067 67.577 34.262 111.9 2.1e-4 6.4e-4 -2e-4 0.00131 0 0.00195l-69.68 69.678c-1.4116-8.3721-2.6372-17.4-3.6445-27.139-10.109-97.725-39.664-172.35-58.422-240.72-18.25-66.522-27.243-126.04-3.6875-202.92zm-82.059 0.01172h0.0039 30.092c-21.311 81.102-10.735 149.92 7.4336 216.15 19.785 72.117 47.559 142.3 56.904 232.63 2.4935 24.104 6.4674 45.261 11.594 63.773 1.6e-4 5.8e-4 -1.6e-4 0.00138 0 0.00195l-59.936 59.934h-46.092v-572.49zm212.91 0h140.07c-8.3808 6.9566-16.32 14.576-23.756 22.727-58.378 63.988-88.312 165.18-39.104 249.69 7.6067 13.064 13.826 25.357 19.064 36.982l-50.338 50.336c-8.7057-32.065-16.843-64.509-30.818-92.723-41.789-84.374-43.404-186.27-15.127-267l0.00781-0.01172zm351.18 0h0.00391 54.494l-22.787 22.787c-10.168-5.9497-20.708-13.401-31.711-22.787zm-98.377 6.7109c20.123 0.46155 39.727 7.906 59.439 25.641 11.614 10.449 23.178 19.188 34.57 26.514l-71.908 71.908h-0.00195c-9.9128-2.3688-19.627-3.8156-29.238-3.8496l0.0039-0.00391c-3.6357-0.0129-7.2564 0.17728-10.867 0.5957-14.444 1.6737-29.979 7.9732-39.943 21.277-9.9643 13.304-12.304 30.585-9.7852 47.809 0.91855 6.2802 2.4252 12.742 4.5254 19.479l-55.76 55.758c-4.0551-7.951-8.507-16.151-13.416-24.582-35.755-61.407-13.607-139.93 32.832-190.83 23.22-25.451 51.845-42.871 79.23-47.973 6.8462-1.2754 13.611-1.8961 20.318-1.7422zm138.64 185.54-36.758 36.76c19.037 15.554 35.101 32.794 43.57 48.965 4.366 8.3386 4.2086 11.553 4.1348 12.121-0.21941 0.27544-1.7038 2.1085-8.0078 4.7012-15.235 6.2656-50.543 10.338-90.951 12.93-13.163 0.84432-22.041 0.20103-26.91-0.55273l-36.602 36.6c4.1167 3.7275 8.8597 6.8784 14.09 8.9551 14.838 5.8918 30.688 6.3031 52.619 4.8965 40.98-2.6286 77.565-4.5737 106.77-16.586 14.604-6.0061 29.382-16.183 35.818-33.379 6.4366-17.196 2.275-35.791-6.6719-52.879-12.158-23.22-30.146-44.377-51.104-62.531zm137.15 334.42v45.824h-161.35c60.557-9.126 114.46-24.445 161.35-45.824z"/>
</svg>
