<?xml version="1.0" encoding="UTF-8" standalone="no"?>
<svg
   viewBox="64 64 896 896"
   focusable="false"
   data-icon="folder"
   width="1em"
   height="1em"
   fill="currentColor"
   aria-hidden="true"
   version="1.1">
  <path
     d="m 144,184 c -17.69998,0 -32,14.30002 -32,32 v 592 c 0,17.69998 14.30002,32 32,32 h 736 c 17.69998,0 32,-14.30002 32,-32 V 330.40039 c 0,-17.69998 -14.30002,-32 -32,-32 H 521 L 403.69922,186.19922 c -1.49262,-1.39694 -3.45573,-2.1819 -5.5,-2.19922 z m 40,72 h 62.25 v 64 h 64 V 256 H 372.5 L 492.09961,370.40039 H 840 V 768 H 184 Z m 126.25,64 v 64 h 64 v -64 z m 0,64 h -64 v 64 h 64 z m 0,64 v 64 h 64 v -64 z m 0,64 h -64 v 62 138.48698 h 128 V 574 h -64 z m -16,110 h 32 v 42.48698 h -32 z"
     />
</svg>
