<svg width="1em" height="1em" fill="currentColor" aria-hidden="true" data-icon="retweet" focusable="false" version="1.1" viewBox="0 0 1024 1024" xmlns="http://www.w3.org/2000/svg">
 <path d="m744.5 202.84c-4.6 0-8.4004 3.8004-8.4004 8.4004v72.6h-596.16c-6.5961 0-11.906 5.3102-11.906 11.906v55.887c0 6.5961 5.3102 11.906 11.906 11.906h596.26v72.602c0 1.9 0.60078 3.6992 1.8008 5.1992 2.8348 3.6343 8.087 4.2633 11.699 1.4004l143.3-112.5c4.3-5 3.6-10.301 0-13.201l-143.3-112.4c-1.4751-1.1796-3.3106-1.816-5.1992-1.8008z"/>
 <path d="m279.4 579.47c4.6 0 8.4004 3.8004 8.4004 8.4004v72.6h596.16c6.5961 0 11.906 5.3102 11.906 11.906v55.887c0 6.5961-5.3102 11.906-11.906 11.906h-596.26v72.602c0 1.9-0.60079 3.6992-1.8008 5.1992-2.8348 3.6343-8.087 4.2633-11.699 1.4004l-143.3-112.5c-4.3-5-3.6-10.301 0-13.201l143.3-112.4c1.475-1.1796 3.3106-1.816 5.1992-1.8008z"/>
</svg>
