<?xml version="1.0" encoding="UTF-8"?>
<svg id="Layer_2" data-name="Layer 2"
  xmlns="http://www.w3.org/2000/svg" viewBox="0 0 824.57 832.49">
  <title>Allen Institute</title>
  <g id="Layer_2-2" data-name="Layer 2">
    <g id="Layer_1" data-name="Layer 1">
      <path d="M107.4,278.03c-40.33,7.67-76.06,16.8-107.4,27.51,9.76-35.14,24.04-68.42,42.19-99.19,25.15-9.35,50.12-14.46,72.9-14.46,53.88,0,76.98,31.62,76.98,49.07,0,14.18-6.6,21.81-29.69,26.17l-54.99,10.9ZM612.24,738.51h-143.93L733.99,157.98C657.1,61.74,538.21,0,404.77,0c-73.25,0-142.12,18.62-202.07,51.33,113.32,21.2,178.52,92.47,178.52,198.36v242.06c0,22.9,13.19,35.98,37.39,35.98,12.1,0,23.09-3.27,35.19-8.72l31.89,121.03c-27.49,17.45-65.69,28.95-111.88,28.95-84.68,0-144.35-36.58-166.34-96.55-34.89,48.09-82.95,79.19-140.61,90.8,76.45,102.65,199.33,169.25,337.91,169.25,231.85,0,419.8-186.36,419.8-416.24,0-37.91-5.14-74.63-14.72-109.53l-197.61,431.8ZM196.47,477.57v-111.22c-7.7,7.63-27.49,17.45-56.08,22.89-86.87,16.36-126.46,41.44-126.46,86.14,0,35.98,25.29,54.52,67.08,54.52s80.28-17.45,115.47-52.34Z" fill="#8246e1"/>
    </g>
  </g>
</svg>