<svg width="16" height="16" version="1.1" viewBox="0 0 16 16" xmlns="http://www.w3.org/2000/svg">
 <g display="none">
  <circle cx="8" cy="8" r="8" fill="none" opacity=".88017" stroke="#68b3ff" stroke-width=".05" style="paint-order:markers fill stroke"/>
 </g>
 <path d="m7.002 0-5.8711 0.55664c-0.30421 0.030047-0.54605 0.26999-0.57422 0.57422l-0.55664 5.8691c-0.0037558 0.056337 0.015178 0.11095 0.052734 0.15039l3.957 3.957-2.8262 2.8262a0.625 0.625 0 0 0 0 0.88281 0.625 0.625 0 0 0 0.88281 0l12.75-12.75a0.625 0.625 0 0 0 0-0.88281 0.625 0.625 0 0 0-0.44141-0.18359 0.625 0.625 0 0 0-0.44141 0.18359l-2.8281 2.8281-3.9551-3.957c-0.035679-0.035681-0.082488-0.054688-0.14258-0.054688h-0.0058594zm-0.44727 1.4766 3.543 3.543-5.0781 5.0781-3.543-3.543 0.43945-4.6387 4.6387-0.43945zm-1.709 1.7168c-0.91074-1e-7 -1.6523 0.74155-1.6523 1.6523 0 0.9108 0.7416 1.6523 1.6523 1.6523 0.91074 0 1.6523-0.74155 1.6523-1.6523 0-0.9108-0.7416-1.6523-1.6523-1.6523zm0 1.0508c0.33237 0 0.59961 0.26917 0.59961 0.60156 0 0.33239-0.26724 0.59961-0.59961 0.59961-0.33237 0-0.60156-0.26722-0.60156-0.59961 0-0.33239 0.26919-0.60156 0.60156-0.60156zm7.8652 1.373-1.0078 1.0078 2.3574 2.3574-5.0781 5.0781-2.3574-2.3574-1.0098 1.0098 3.2324 3.2324c0.035678 0.03569 0.082111 0.054688 0.13281 0.054688 0.050696 0 0.097133-0.019018 0.13281-0.054688l6.832-6.832a0.18703 0.18704 0 0 0 0-0.26367l-3.2344-3.2324z"/>
</svg>
