<svg width="16" height="16" version="1.1" viewBox="0 0 16 16" xmlns="http://www.w3.org/2000/svg">
 <g display="none">
  <circle cx="8" cy="8" r="8" fill="none" opacity=".88017" stroke="#68b3ff" stroke-width=".05" style="paint-order:markers fill stroke"/>
 </g>
 <path d="m1.0004 7.1258 0.48636-5.1366c0.024646-0.2662 0.23661-0.47653 0.50279-0.50282l5.1363-0.48639h0.00657c0.052579 0 0.093656 0.016431 0.12488 0.047653l7.6946 7.6951a0.16365 0.16366 0 0 1 0 0.23169l-5.9776 5.9779c-0.03122 0.03121-0.072301 0.04765-0.11666 0.04765-0.044365 0-0.085442-0.01642-0.11666-0.04765l-7.6946-7.6951c-0.032871-0.034508-0.049301-0.082159-0.046004-0.13146zm7.8589 6.1768 4.4429-4.4432-6.5675-6.5678-4.0585 0.38451-0.38448 4.0587zm-3.6197-9.5092c0.7969 0 1.4459 0.64906 1.4459 1.446 0 0.79695-0.64902 1.446-1.4459 1.446-0.7969 0-1.4459-0.64906-1.4459-1.446 0-0.79695 0.64902-1.446 1.4459-1.446zm0 1.9718c0.29083 0 0.52579-0.23498 0.52579-0.52582 0-0.29085-0.23496-0.52582-0.52579-0.52582-0.29083 0-0.52579 0.23498-0.52579 0.52582 0 0.29085 0.23496 0.52582 0.52579 0.52582z"/>
 <path d="m12.584 1c-0.046325 0-0.083984 0.037659-0.083984 0.083984v1.416h-1.416c-0.046325 0-0.083984 0.037659-0.083984 0.083984v0.83203c0 0.046326 0.037659 0.083984 0.083984 0.083984h1.416v1.416c0 0.046326 0.037659 0.083984 0.083984 0.083984h0.83203c0.046325 0 0.083984-0.037659 0.083984-0.083984v-1.416h1.416c0.046325 0 0.083984-0.037659 0.083984-0.083984v-0.83203c0-0.046326-0.037659-0.083984-0.083984-0.083984h-1.416v-1.416c0-0.046326-0.037659-0.083984-0.083984-0.083984h-0.83203z" style="paint-order:markers fill stroke"/>
</svg>
