<!-- Adapted from Ionicons: https://ionic.io/ionicons 
The MIT License (MIT)

Copyright (c) 2015-present Ionic (http://ionic.io/)

Permission is hereby granted, free of charge, to any person obtaining a copy
of this software and associated documentation files (the "Software"), to deal
in the Software without restriction, including without limitation the rights
to use, copy, modify, merge, publish, distribute, sublicense, and/or sell
copies of the Software, and to permit persons to whom the Software is
furnished to do so, subject to the following conditions:

The above copyright notice and this permission notice shall be included in
all copies or substantial portions of the Software.

THE SOFTWARE IS PROVIDED "AS IS", WITHOUT WARRANTY OF ANY KIND, EXPRESS OR
IMPLIED, INCLUDING BUT NOT LIMITED TO THE WARRANTIES OF MERCHANTABILITY,
FITNESS FOR A PARTICULAR PURPOSE AND NONINFRINGEMENT. IN NO EVENT SHALL THE
AUTHORS OR COPYRIGHT HOLDERS BE LIABLE FOR ANY CLAIM, DAMAGES OR OTHER
LIABILITY, WHETHER IN AN ACTION OF CONTRACT, TORT OR OTHERWISE, ARISING FROM,
OUT OF OR IN CONNECTION WITH THE SOFTWARE OR THE USE OR OTHER DEALINGS IN
THE SOFTWARE.
-->
<svg width="4.2333mm" height="4.2333mm" version="1.1" viewBox="0 0 4.2333 4.2333"
    xml:space="preserve" xmlns="http://www.w3.org/2000/svg">
    <g transform="matrix(.0071742 0 0 .0070987 .068404 .31589)" stroke-linecap="round" stroke-linejoin="round">
        <path d="m302.97-43.93c-31.631-3e-6 -57.726 26.017-57.883 57.615-5.0583-1.4653-10.373-2.2969-15.873-2.2969-31.727 6e-6 -57.896 26.17-57.896 57.896v258.15a21.019 21.019 0 0 0 21.018 21.02 21.019 21.019 0 0 0 21.02-21.02v-258.15c0-9.0077 6.8517-15.859 15.859-15.859 9.0077 0 15.859 6.8517 15.859 15.859v167.11a21.019 21.019 0 0 0 21.02 21.02 21.019 21.019 0 0 0 21.018-21.02v-222.42c0-9.0077 6.8517-15.859 15.859-15.859 9.0077 1.7e-6 15.859 6.8517 15.859 15.859v221.27a21.019 21.019 0 0 0 2.8164 10.51 21.019 21.019 0 0 0 18.203 10.508 21.019 21.019 0 0 0 21.02-21.018v-184.39c0-9.0077 6.8517-15.859 15.859-15.859 9.0077-1e-6 15.857 6.8517 15.857 15.859v202.83a21.019 21.019 0 0 0 21.02 21.02 21.019 21.019 0 0 0 21.02-21.02v-129.07c0-9.0077 6.8517-15.859 15.859-15.859 9.0077 0 15.859 6.8517 15.859 15.859v202.83a21.019 21.019 0 0 0 21.02 21.02 21.019 21.019 0 0 0 21.018-21.02v-202.83c-1e-5 -31.727-26.17-57.898-57.896-57.898-5.4947 3e-6 -10.805 0.83211-15.859 2.2949v-18.154c0-31.727-26.17-57.896-57.896-57.896-6.5501-6e-7 -12.839 1.1692-18.734 3.2187-7.5973-23.144-29.498-40.098-55.023-40.098z"/>
        <path d="m116.45 186.64c-9.5151 0.30757-19.041 2.8585-27.621 7.7344-13.397 7.6112-23.016 20.482-26.443 34.369-3.4273 13.889-1.4956 28.079 3.4297 41.428l-0.02148-0.0547 60.699 165.95a21.021 21.021 0 0 0 0.35547 0.90625c12.601 30.059 30.964 59.36 60.93 80.637 29.966 21.277 70.548 33.672 124.41 33.672 55.373 0 105.67-19.002 141.08-57.461 35.41-38.459 55.109-94.921 55.109-166.39a21.019 21.019 0 0 0-21.018-21.02 21.019 21.019 0 0 0-21.02 21.02c0 63.829-17.178 108.78-44 137.91s-64.11 43.896-110.15 43.896c-47.555 0-78.26-10.424-100.07-25.91-21.723-15.424-35.6-36.727-46.363-62.309l-60.479-165.35a21.021 21.021 0 0 0-0.0195-0.0547c-2.75-7.453-2.9174-13.309-2.0547-16.805 0.86271-3.496 1.9192-5.3486 6.3945-7.8906a21.021 21.021 0 0 0 4e-3 -2e-3c8.1729-4.6446 17.792-2.511 21.84 4.625l41.48 99.941a21.019 21.019 0 0 0 27.471 11.357 21.019 21.019 0 0 0 11.355-27.473l-42.053-101.32a21.021 21.021 0 0 0-0.8125-1.7324c-10.618-20.175-31.497-30.356-52.43-29.68z" />
    </g>
</svg>